<?xml version="1.0" standalone="no"?>
<!DOCTYPE svg PUBLIC "-//W3C//DTD SVG 20010904//EN"
 "http://www.w3.org/TR/2001/REC-SVG-20010904/DTD/svg10.dtd">
<svg version="1.0" xmlns="http://www.w3.org/2000/svg"
 width="260.000000pt" height="260.000000pt" viewBox="0 0 260.000000 260.000000"
 preserveAspectRatio="xMidYMid meet">
<metadata>
Created by potrace 1.14, written by Peter Selinger 2001-2017
</metadata>
<g transform="translate(0.000000,260.000000) scale(0.100000,-0.100000)"
fill="#000000" stroke="none">
<path d="M1128 2235 c-354 -67 -653 -347 -750 -703 -31 -111 -31 -353 0 -464
74 -270 265 -501 517 -624 145 -71 223 -87 405 -87 182 0 260 16 405 87 252
123 443 354 517 624 31 111 31 353 0 464 -74 270 -265 501 -517 624 -49 24
-126 53 -170 65 -106 27 -300 34 -407 14z m397 -74 c104 -27 263 -107 345
-174 90 -73 161 -165 220 -282 75 -150 93 -230 93 -405 0 -175 -18 -255 -93
-405 -90 -180 -205 -295 -385 -385 -150 -75 -230 -93 -405 -93 -175 0 -255 18
-405 93 -180 90 -295 205 -385 385 -75 150 -93 230 -93 405 0 175 18 255 93
405 103 206 252 340 476 427 158 61 370 72 539 29z"/>
<path d="M1470 1838 c0 -18 -2 -20 -10 -8 -6 10 -12 12 -19 5 -7 -7 -6 -29 5
-67 10 -33 13 -65 9 -75 -10 -23 -13 -55 -6 -68 3 -5 7 -19 9 -30 5 -29 10
-50 12 -50 1 0 3 -10 6 -23 2 -13 12 -37 21 -55 9 -18 19 -41 21 -52 6 -31 10
-50 12 -52 2 -2 4 -7 5 -13 1 -5 3 -11 4 -12 2 -2 5 -14 8 -28 7 -39 14 -59
40 -120 3 -8 7 -17 8 -20 10 -30 26 -59 35 -65 5 -3 8 -9 6 -13 -17 -28 72
-62 163 -62 54 0 144 15 176 30 11 5 32 14 48 20 36 13 36 34 0 27 l-28 -5 28
23 c28 25 35 49 17 60 -6 4 -7 12 -3 18 4 7 0 6 -10 -2 -16 -12 -22 -8 -18 13
1 5 -7 6 -19 3 -11 -3 -23 -1 -26 5 -3 5 -14 2 -26 -9 -11 -10 -22 -17 -25
-15 -3 2 -8 0 -11 -4 -4 -4 0 -4 8 1 8 5 12 4 7 0 -4 -5 -18 -11 -30 -13 -12
-2 -29 -5 -37 -7 -8 -1 -21 2 -28 8 -10 8 -12 7 -10 -3 2 -9 -7 -14 -27 -14
-19 -1 -29 4 -27 12 1 6 -5 12 -13 12 -8 0 -14 3 -13 8 0 4 -10 30 -23 57 -13
28 -24 52 -24 55 -1 3 -4 12 -7 20 -4 8 -9 26 -12 40 -25 101 -40 147 -50 160
-13 15 -46 143 -46 176 0 27 -33 124 -40 119 -4 -2 -16 5 -28 15 -27 26 -32
25 -32 -2z m54 -350 c6 -4 7 -8 3 -8 -5 0 -5 -6 0 -12 4 -7 9 -17 10 -23 1 -5
14 -50 28 -100 23 -77 32 -105 53 -147 2 -5 -1 -8 -6 -8 -11 0 -44 85 -71 186
-10 40 -25 82 -32 95 -16 32 -49 158 -48 189 0 14 12 -18 26 -70 14 -52 31
-98 37 -102z m110 -340 c9 -17 16 -34 16 -37 0 -9 -40 53 -40 62 0 15 9 6 24
-25z"/>
<path d="M1099 1748 c-1 -17 -3 -18 -6 -6 -8 30 -33 8 -33 -28 0 -19 -4 -34
-8 -34 -17 0 0 -134 20 -157 5 -7 8 -19 5 -28 -4 -8 -2 -17 3 -20 4 -3 7 -13
5 -23 -1 -9 2 -22 7 -29 5 -6 8 -17 7 -25 -1 -7 4 -26 11 -43 7 -16 14 -33 15
-37 2 -5 4 -10 5 -13 1 -3 3 -13 4 -22 1 -10 5 -24 9 -30 5 -7 6 -13 2 -13 -3
0 1 -13 10 -30 9 -16 13 -30 9 -30 -4 0 -2 -6 4 -12 6 -7 11 -16 11 -20 1 -5
2 -10 2 -13 1 -3 3 -13 4 -22 4 -28 15 -57 38 -103 19 -38 28 -45 72 -56 53
-14 109 -11 190 12 28 7 67 16 88 19 39 6 52 25 17 25 -11 0 -20 4 -20 10 0 5
9 14 20 20 27 14 25 32 -6 59 -22 19 -34 22 -73 17 -64 -8 -79 -11 -87 -19 -4
-4 -14 -1 -22 6 -13 9 -14 9 -8 0 4 -8 1 -13 -8 -14 -9 -1 -22 -2 -28 -3 -17
-2 -32 29 -53 101 -8 32 -20 67 -25 78 -9 20 -23 66 -60 210 -12 44 -26 94
-31 112 -5 17 -13 56 -16 85 -6 54 -30 88 -45 65 -5 -7 -8 -3 -8 11 0 12 -4
22 -10 22 -5 0 -11 -10 -11 -22z m-6 -208 c6 -34 6 -34 -7 -10 -8 14 -17 48
-20 75 l-6 50 13 -40 c8 -23 17 -56 20 -75z m27 -115 c7 -33 17 -65 21 -70 13
-18 28 -95 18 -95 -5 0 -9 8 -9 18 -1 9 -8 35 -16 57 -15 40 -43 142 -44 160
-1 27 18 -18 30 -70z m64 -207 c19 -44 26 -78 16 -78 -5 0 -12 16 -16 35 -3
19 -10 38 -15 41 -9 5 -13 34 -4 34 2 0 11 -15 19 -32z m39 -138 c6 -35 6 -35
-8 -10 -8 14 -14 34 -15 45 0 30 17 5 23 -35z m31 -70 c8 -16 11 -30 7 -30 -7
0 -31 43 -31 55 0 13 10 2 24 -25z"/>
<path d="M1420 1746 c5 -13 7 -26 4 -29 -2 -2 3 -10 12 -18 15 -12 16 -11 10
9 -3 12 -9 31 -12 42 -3 11 -9 20 -14 20 -6 0 -6 -10 0 -24z"/>
<path d="M745 1649 c-4 -6 -13 -8 -20 -5 -15 5 -25 -14 -25 -49 0 -13 -3 -26
-7 -28 -7 -4 -8 -251 -2 -267 1 -3 5 9 9 25 6 25 7 23 3 -10 -6 -65 -6 -195 1
-202 3 -3 7 9 7 28 1 25 3 28 6 11 3 -13 1 -31 -2 -40 -7 -16 -9 -72 -5 -89 2
-5 6 8 10 27 l7 35 2 -32 c0 -17 -2 -34 -6 -36 -5 -3 -7 -38 -5 -79 3 -105 7
-129 17 -126 6 2 9 10 8 18 -16 114 -13 122 7 28 12 -54 30 -75 51 -62 5 3 9
0 9 -5 0 -6 9 -11 21 -11 21 0 21 2 14 144 l-7 144 38 5 c22 3 51 8 65 12 25
6 29 2 60 -62 18 -37 33 -71 32 -75 -3 -10 63 -79 73 -77 9 2 24 -3 73 -22 34
-14 50 4 27 30 -15 16 -15 19 -1 24 20 8 19 19 -4 44 -11 11 -36 54 -55 95
-20 42 -42 81 -50 87 -8 7 -18 26 -21 42 -4 16 -10 27 -15 24 -4 -2 -10 12
-13 31 -4 20 -14 45 -23 55 -18 21 -33 44 -61 99 -10 19 -28 46 -40 60 -13 14
-23 30 -23 37 0 7 -4 13 -9 13 -5 0 -14 12 -21 28 -23 54 -58 111 -64 105 -3
-4 -6 -1 -6 5 0 7 -7 12 -15 12 -8 0 -15 5 -15 10 0 13 -17 13 -25 -1z m130
-311 c5 -4 7 -8 3 -8 -4 0 1 -16 12 -35 11 -19 16 -35 12 -35 -4 0 -23 28 -42
62 -18 34 -35 57 -37 51 -2 -6 7 -29 20 -50 40 -65 51 -99 35 -110 -7 -4 -8
-1 -4 8 4 8 1 6 -7 -3 -8 -10 -22 -18 -31 -18 -13 0 -16 13 -17 73 -1 39 -3
86 -5 104 l-2 32 26 -32 c15 -18 31 -35 37 -39z m162 -325 c12 -24 18 -43 14
-43 -6 0 -57 92 -69 125 -8 22 34 -42 55 -82z m28 -63 c3 -5 1 -10 -4 -10 -6
0 -11 5 -11 10 0 6 2 10 4 10 3 0 8 -4 11 -10z"/>
</g>
</svg>
